<svg xmlns="http://www.w3.org/2000/svg" width="52.5" height="60" viewBox="0 0 52.5 60">
  <path id="book-solid" d="M52.5,42.188V2.813A2.806,2.806,0,0,0,49.688,0H11.25A11.253,11.253,0,0,0,0,11.25v37.5A11.253,11.253,0,0,0,11.25,60H49.688A2.806,2.806,0,0,0,52.5,57.188V55.313a2.834,2.834,0,0,0-1.043-2.191,26.133,26.133,0,0,1,0-8.754,2.793,2.793,0,0,0,1.043-2.18ZM15,15.7a.705.705,0,0,1,.7-.7H40.547a.705.705,0,0,1,.7.7v2.344a.705.705,0,0,1-.7.7H15.7a.705.705,0,0,1-.7-.7Zm0,7.5a.705.705,0,0,1,.7-.7H40.547a.705.705,0,0,1,.7.7v2.344a.705.705,0,0,1-.7.7H15.7a.705.705,0,0,1-.7-.7ZM44.7,52.5H11.25a3.75,3.75,0,0,1,0-7.5H44.7A42.188,42.188,0,0,0,44.7,52.5Z" fill="#707070"/>
</svg>
