<svg xmlns="http://www.w3.org/2000/svg" width="52.5" height="39.985" viewBox="0 0 52.5 39.985">
  <g id="noun_Table_3320317" transform="translate(-2.46 153.69)">
    <g id="Grupo_4" data-name="Grupo 4" transform="translate(2.46 -153.69)">
      <path id="Caminho_5" data-name="Caminho 5" d="M25.677,35.624H41.722v7.766H25.677Zm0,17.671H41.722V45.529H25.677Zm0-19.811H41.722V25.708H25.677Zm18.185,0H59.907V25.708H43.861Zm-36.369,0H23.537V25.708H7.492Zm0,9.905H23.537V35.624H7.492Zm36.423,0H59.96V35.624H43.915ZM56.751,13.31H10.669A3.209,3.209,0,0,0,7.46,16.519v7.049H24.447a.706.706,0,0,1,.16,0H42.813a.706.706,0,0,1,.16,0H59.96V16.519a3.209,3.209,0,0,0-3.209-3.209ZM7.46,50.086a3.209,3.209,0,0,0,3.209,3.209H23.505V45.529H7.46Zm36.423,3.209H56.719a3.209,3.209,0,0,0,3.209-3.209V45.529H43.883Z" transform="translate(-7.46 -13.31)" fill="#707070"/>
    </g>
  </g>
</svg>
